# xmcd
#
# Track frame offsets:
#	150
#	70522
#	123470
#	189862
#	247777
#	268087
#
# Disc length: 3870 seconds
#
# Revision: 0
# Processed by: cddbd v1.4PL0 Copyright (c) Steve Scherf et al.
# Submitted via: dBpowerAMP V4.0
#
DISCID=470f1c06
DTITLE=The Beatles - The long and winding Road 4/12
DYEAR=1900
DGENRE=Blues
TTITLE0=Spur 1
TTITLE1=Spur 2
TTITLE2=Spur 3
TTITLE3=Spur 4
TTITLE4=Spur 5
TTITLE5=Spur 6
EXTD=Special Edition CD 4/12
EXTT0=
EXTT1=
EXTT2=
EXTT3=
EXTT4=
EXTT5=
PLAYORDER=
